<?xml version="1.0" encoding="UTF-8"?>
<svg version="1.1" xmlns="http://www.w3.org/2000/svg" width="960" height="328">
<path d="M0 0 C316.8 0 633.6 0 960 0 C960 108.24 960 216.48 960 328 C643.2 328 326.4 328 0 328 C0 219.76 0 111.52 0 0 Z " fill="#FEFEFE" transform="translate(0,0)"/>
<path d="M0 0 C0.91995758 0.00470306 1.83991516 0.00940613 2.78775024 0.01425171 C5.70563677 0.03548724 8.62166605 0.09208363 11.5390625 0.1484375 C13.52211835 0.16495487 15.50519356 0.17930029 17.48828125 0.19140625 C31.96815828 0.32753328 31.96815828 0.32753328 33.1640625 1.5234375 C33.43721065 7.25954861 33.43721065 7.25954861 33.1640625 9.5234375 C30.56508566 12.12241434 28.76101595 11.76708911 25.22071838 11.79989624 C24.4092485 11.79889923 23.59777863 11.79790222 22.76171875 11.796875 C21.05012365 11.81716238 19.33853515 11.83801313 17.62695312 11.859375 C14.92320185 11.88199848 12.21971078 11.89845231 9.51586914 11.90429688 C6.90983823 11.91380013 4.3049865 11.94754936 1.69921875 11.984375 C0.8897731 11.97932953 0.08032745 11.97428406 -0.75364685 11.96908569 C-5.07374656 12.02096833 -5.07374656 12.02096833 -8.75048828 14.05712891 C-10.2460031 17.45516999 -11.02617341 20.89971758 -11.73828125 24.5234375 C-11.90089447 25.30767593 -12.06350769 26.09191437 -12.23104858 26.8999176 C-12.75505202 29.43918027 -13.26435798 31.98114495 -13.7734375 34.5234375 C-14.13020248 36.26572837 -14.48786989 38.00783468 -14.84643555 39.74975586 C-15.85643161 44.67163404 -16.84905588 49.59687926 -17.8359375 54.5234375 C-18.18736816 56.27358154 -18.18736816 56.27358154 -18.54589844 58.05908203 C-19.56276131 63.12588272 -19.56276131 63.12588272 -20.55639648 68.19726562 C-21.34580537 72.25175604 -22.23270645 76.2742897 -23.171875 80.296875 C-25.07275455 88.46211049 -26.81755155 96.65931518 -28.56607056 104.85821533 C-29.15875802 107.63427731 -29.75423462 110.40972907 -30.3503418 113.18505859 C-32.13916154 121.52175905 -33.91460575 129.86007188 -35.6171875 138.21484375 C-35.87975342 139.4877124 -36.14231934 140.76058105 -36.4128418 142.07202148 C-36.88718116 144.37822704 -37.35284995 146.68624124 -37.80786133 148.99633789 C-39.5981193 157.64232298 -41.98899825 164.53236566 -48.8359375 170.5234375 C-49.4134375 171.0596875 -49.9909375 171.5959375 -50.5859375 172.1484375 C-58.25374472 176.83431969 -66.23342981 176.96468061 -74.99975586 176.94335938 C-76.29198563 176.95182892 -77.58421539 176.96029846 -78.91560364 176.96902466 C-82.43634938 176.99110684 -85.95686019 176.99417818 -89.47766566 176.99227715 C-92.42728011 176.99215685 -95.37684582 177.00074466 -98.32644659 177.00905466 C-105.28984887 177.02824 -112.25313128 177.03119003 -119.21655273 177.02441406 C-126.37799342 177.01777323 -133.53891907 177.04065007 -140.70025533 177.07772779 C-146.87042339 177.10850359 -153.04042639 177.11977644 -159.21066958 177.11589098 C-162.88642813 177.11383198 -166.56178543 177.11917024 -170.23747063 177.14378357 C-174.33956478 177.17034922 -178.44058203 177.15626318 -182.54272461 177.13867188 C-183.74563141 177.15193512 -184.94853821 177.16519836 -186.18789673 177.17886353 C-195.2731291 177.08860361 -201.87981035 174.97452714 -208.7734375 168.9609375 C-214.10080181 162.6649615 -216.06241566 157.12318726 -217.75390625 149.04296875 C-217.9319278 148.20973083 -218.10994934 147.37649292 -218.29336548 146.51800537 C-218.87452365 143.79157733 -219.44911509 141.06381296 -220.0234375 138.3359375 C-220.42575537 136.44061649 -220.82834598 134.54535336 -221.23120117 132.65014648 C-224.59236463 116.80581405 -227.86180776 100.94273902 -231.10888672 85.07470703 C-232.13631824 80.05623189 -233.16778877 75.03866969 -234.2109375 70.0234375 C-234.36667236 69.26361572 -234.52240723 68.50379395 -234.68286133 67.72094727 C-235.44121956 64.01807046 -235.44121956 64.01807046 -236.8359375 60.5234375 C-237.46657332 54.56878005 -236.90747581 49.77477719 -233.8359375 44.5234375 C-229.62420905 40.01012849 -225.28699951 36.84050984 -218.98741436 36.26172447 C-217.41253105 36.25342834 -217.41253105 36.25342834 -215.80583191 36.2449646 C-214.59573456 36.23380112 -213.38563721 36.22263763 -212.13887024 36.21113586 C-210.81969101 36.20897568 -209.50051178 36.20681549 -208.14135742 36.20458984 C-206.73176501 36.19528711 -205.32217809 36.18511793 -203.91259766 36.17414856 C-200.09277926 36.14687328 -196.2729977 36.13170651 -192.4531076 36.11872053 C-188.45854839 36.10307916 -184.46406426 36.07629214 -180.46955872 36.0506897 C-172.90844448 36.00391972 -165.34731608 35.967167 -157.7861312 35.93401682 C-149.17670097 35.89578285 -140.56734618 35.84637603 -131.95797956 35.79603267 C-114.25068744 35.69273931 -96.54334926 35.60347047 -78.8359375 35.5234375 C-79.74472656 34.66177979 -79.74472656 34.66177979 -80.671875 33.78271484 C-82.92034665 31.63672161 -85.15482891 29.47734945 -87.38085938 27.30810547 C-88.81911647 25.91473358 -90.27277931 24.53732114 -91.7265625 23.16015625 C-92.62890625 22.27714844 -93.53125 21.39414063 -94.4609375 20.484375 C-95.71777344 19.27467041 -95.71777344 19.27467041 -97 18.04052734 C-99.25721171 14.94586607 -99.3004161 13.27384126 -98.8359375 9.5234375 C-97.6484375 7.6484375 -97.6484375 7.6484375 -95.8359375 6.5234375 C-92.99243007 6.22246907 -91.40578665 6.15420609 -88.97512817 7.72914124 C-88.39697357 8.29426926 -87.81881897 8.85939728 -87.22314453 9.44165039 C-86.55960968 10.07974136 -85.89607483 10.71783234 -85.21243286 11.3752594 C-84.51326752 12.07513474 -83.81410217 12.77501007 -83.09375 13.49609375 C-82.36598358 14.21196152 -81.63821716 14.92782928 -80.88839722 15.66539001 C-79.35408685 17.18315598 -77.82632393 18.70756516 -76.3046875 20.23803711 C-73.97093485 22.57592244 -71.60473583 24.87704659 -69.234375 27.17773438 C-67.74789144 28.65673796 -66.26344517 30.13779254 -64.78125 31.62109375 C-64.06993927 32.30679947 -63.35862854 32.99250519 -62.62576294 33.69898987 C-59.51793405 36.88171176 -57.94036144 38.52285867 -57.46923828 43.03710938 C-59.33571627 47.79832868 -62.13619664 50.66691437 -65.7578125 54.20703125 C-66.45481262 54.90740005 -67.15181274 55.60776886 -67.86993408 56.32936096 C-69.34221653 57.80134521 -70.82195926 59.26590072 -72.30859375 60.72338867 C-74.58371232 62.95875121 -76.82794401 65.22207177 -79.0703125 67.49023438 C-80.5060628 68.91842778 -81.943507 70.34492077 -83.3828125 71.76953125 C-84.05382996 72.44753281 -84.72484741 73.12553436 -85.41619873 73.82408142 C-86.05325745 74.44215164 -86.69031616 75.06022186 -87.34667969 75.69702148 C-87.90103699 76.24438461 -88.45539429 76.79174774 -89.02655029 77.35569763 C-91.42451264 78.90329133 -93.03482805 78.81225306 -95.8359375 78.5234375 C-97.6484375 77.3984375 -97.6484375 77.3984375 -98.8359375 75.5234375 C-99.3004161 71.77303374 -99.25721171 70.10100893 -97 67.00634766 C-95.74316406 65.79664307 -95.74316406 65.79664307 -94.4609375 64.5625 C-93.55859375 63.67949219 -92.65625 62.79648438 -91.7265625 61.88671875 C-90.77265625 60.98308594 -89.81875 60.07945313 -88.8359375 59.1484375 C-87.87103224 58.21364505 -86.90747387 57.27746019 -85.9453125 56.33984375 C-83.58841808 54.05365616 -81.21868771 51.78261423 -78.8359375 49.5234375 C-97.4462693 49.47676647 -116.05658926 49.44147273 -134.66696739 49.41981316 C-143.30762053 49.40949001 -151.94823735 49.39540992 -160.58886719 49.37255859 C-168.11792767 49.35265642 -175.64696187 49.33972862 -183.17604792 49.33526051 C-187.16455185 49.33264773 -191.15298055 49.32648517 -195.14146042 49.31197739 C-198.89244032 49.29844351 -202.64331372 49.2942063 -206.39431572 49.29722214 C-207.77383057 49.29667009 -209.15334884 49.29266769 -210.53284264 49.28502655 C-212.4107343 49.27513145 -214.2886826 49.27864728 -216.16659546 49.28292847 C-217.21928305 49.28108488 -218.27197063 49.27924129 -219.35655785 49.27734184 C-222.01140339 49.27636535 -222.01140339 49.27636535 -223.8359375 51.5234375 C-224.9676494 59.41878151 -223.1022215 67.20798801 -221.30169678 74.85699463 C-220.65217135 77.61673294 -220.02888352 80.38222832 -219.40377808 83.14758301 C-219.0693774 84.62630556 -218.73368364 86.10473622 -218.39675903 87.58288574 C-216.57462976 95.59952297 -214.89776315 103.64548492 -213.22277832 111.69390869 C-211.91758208 117.95296746 -210.59177063 124.20771295 -209.2701416 130.46331787 C-208.8651638 132.38477074 -208.46322521 134.30686348 -208.06152344 136.22900391 C-207.41503095 139.30905954 -206.75364423 142.38542364 -206.0859375 145.4609375 C-205.91175293 146.30543457 -205.73756836 147.14993164 -205.55810547 148.02001953 C-204.37430738 153.36437234 -202.88663291 159.5138745 -198.05238247 162.69830608 C-195.33701372 163.70917533 -193.16194134 163.77809524 -190.26344299 163.78413391 C-188.56216751 163.79476112 -188.56216751 163.79476112 -186.82652283 163.80560303 C-185.58640945 163.80312561 -184.34629608 163.80064819 -183.06860352 163.7980957 C-181.75931885 163.80320663 -180.45003418 163.80831757 -179.10107422 163.81358337 C-175.51221844 163.82697082 -171.92346799 163.82755235 -168.3345921 163.82502007 C-165.3375482 163.8239502 -162.34052559 163.82883415 -159.34348625 163.8336255 C-152.27251303 163.84471978 -145.20159294 163.84515853 -138.13061523 163.83911133 C-130.83809401 163.83307053 -123.54576568 163.84538533 -116.25327736 163.8666814 C-109.98988826 163.88429908 -103.72656055 163.8902985 -97.46314758 163.88704365 C-93.72330381 163.88523092 -89.98359764 163.88786585 -86.24377632 163.90175819 C-82.07327888 163.91667078 -77.90317392 163.907365 -73.73266602 163.89575195 C-72.49457687 163.90339569 -71.25648773 163.91103943 -69.98088074 163.91891479 C-68.84387726 163.91190048 -67.70687378 163.90488617 -66.53541565 163.8976593 C-65.54968347 163.89782704 -64.56395128 163.89799479 -63.54834843 163.89816761 C-59.26384529 163.30624685 -56.64920251 161.33643136 -53.63916016 158.32739258 C-51.43259109 154.8962464 -50.68208263 151.61141081 -49.984375 147.66015625 C-49.83940582 146.9093428 -49.69443665 146.15852936 -49.54507446 145.38496399 C-49.08660865 142.995991 -48.64816748 140.60387887 -48.2109375 138.2109375 C-47.76229227 135.82968528 -47.30953854 133.44925185 -46.8553772 131.06904602 C-46.57516647 129.59276649 -46.29883336 128.11574333 -46.02719116 126.63786316 C-45.13926545 121.85890332 -44.01989723 117.25927642 -42.8359375 112.5234375 C-83.0959375 112.8534375 -123.3559375 113.1834375 -164.8359375 113.5234375 C-158.2359375 120.1234375 -151.6359375 126.7234375 -144.8359375 133.5234375 C-144.8359375 139.5234375 -144.8359375 139.5234375 -145.9609375 141.4609375 C-147.8359375 142.5234375 -147.8359375 142.5234375 -150.49487305 142.5065918 C-155.23234602 141.11252503 -157.75499416 138.32208338 -161.16796875 134.85546875 C-161.84518478 134.18303635 -162.52240082 133.51060394 -163.22013855 132.8177948 C-164.6456705 131.39565861 -166.06493445 129.96721527 -167.47827148 128.53295898 C-169.64111352 126.34335211 -171.82931302 124.18168195 -174.02148438 122.02148438 C-175.40525181 120.63441279 -176.78746735 119.24579093 -178.16796875 117.85546875 C-178.8220723 117.21148636 -179.47617584 116.56750397 -180.15010071 115.90400696 C-182.7658953 113.219638 -184.62677901 110.98412384 -186.18457031 107.55297852 C-185.61551638 102.60802738 -182.38548927 100.0939081 -178.92578125 96.71875 C-178.20612686 95.9947702 -177.48647247 95.27079041 -176.74501038 94.52487183 C-175.2191189 92.99859894 -173.68446348 91.48104516 -172.1418457 89.97167969 C-169.78369989 87.65850418 -167.46212902 85.312742 -165.14257812 82.9609375 C-163.65571301 81.48229342 -162.1668444 80.00566068 -160.67578125 78.53125 C-159.98177719 77.82823761 -159.28777313 77.12522522 -158.57273865 76.40090942 C-153.67150098 71.66323358 -153.67150098 71.66323358 -149.47094727 70.96044922 C-146.8359375 71.5234375 -146.8359375 71.5234375 -144.8359375 73.5234375 C-144.31049973 77.26204216 -144.40002634 78.92818927 -146.65600586 82.00878906 C-147.48753174 82.8025293 -148.31905762 83.59626953 -149.17578125 84.4140625 C-150.07361328 85.28804688 -150.97144531 86.16203125 -151.89648438 87.0625 C-152.84587891 87.95710938 -153.79527344 88.85171875 -154.7734375 89.7734375 C-156.63844381 91.56852197 -158.5018125 93.36530991 -160.36328125 95.1640625 C-161.19593506 95.95329102 -162.02858887 96.74251953 -162.88647461 97.55566406 C-164.89176723 99.37527207 -164.89176723 99.37527207 -165.8359375 101.5234375 C-124.2559375 101.5234375 -82.6759375 101.5234375 -39.8359375 101.5234375 C-39.1759375 97.5634375 -38.5159375 93.6034375 -37.8359375 89.5234375 C-37.19597601 86.35539552 -36.54050082 83.19894048 -35.84765625 80.04296875 C-35.66412094 79.19466492 -35.48058563 78.34636108 -35.29148865 77.47235107 C-34.90341961 75.67916422 -34.51418771 73.88622865 -34.12384033 72.09353638 C-33.10638464 67.42044938 -32.09716653 62.74559302 -31.08984375 58.0703125 C-30.89243591 57.15419693 -30.69502808 56.23808136 -30.49163818 55.29420471 C-28.70335998 46.96426431 -27.01368006 38.61699841 -25.4206543 30.24731445 C-21.10823439 7.96886612 -21.10823439 7.96886612 -11.92352295 1.57977295 C-8.08262057 -0.36375532 -4.22163942 -0.10882233 0 0 Z " fill="#354ACB" transform="translate(249.8359375,43.4765625)"/>
<path d="M0 0 C0.96215424 -0.01283524 1.92430847 -0.02567047 2.9156189 -0.03889465 C3.96134064 -0.04628159 5.00706238 -0.05366852 6.08447266 -0.0612793 C7.70224106 -0.07338692 7.70224106 -0.07338692 9.35269165 -0.08573914 C11.64429105 -0.09959524 13.93591123 -0.11031053 16.22753906 -0.11816406 C19.69979408 -0.13525809 23.17106725 -0.17911685 26.64306641 -0.22338867 C28.87352818 -0.23352613 31.10399803 -0.24203893 33.33447266 -0.2487793 C34.35995209 -0.26628738 35.38543152 -0.28379547 36.44198608 -0.30183411 C48.3918021 -0.26665161 60.19211583 3.73848807 69.18603516 11.80200195 C75.87827714 19.0296233 77.95722218 26.41333541 77.85058594 36.14672852 C77.5144221 44.21086204 75.39126042 52.48455914 69.37353516 58.17700195 C64.92093272 61.50808423 60.59976991 64.23214211 55.37353516 66.17700195 C56.74093353 69.25849872 58.28430936 71.30775128 60.70947266 73.63793945 C61.68787109 74.59313477 61.68787109 74.59313477 62.68603516 75.56762695 C64.05307481 76.8828848 65.4202606 78.19799079 66.78759766 79.51293945 C70.52962535 83.1665728 73.82917811 86.58411129 76.37353516 91.17700195 C76.37353516 95.1244613 75.93834353 97.32978939 73.74853516 100.61450195 C70.26130888 102.90872977 68.48595887 102.9309463 64.37353516 102.17700195 C59.15281834 98.77531442 55.15290475 93.928122 51.15478516 89.2121582 C49.30904286 87.10331668 47.37214099 85.14101653 45.37353516 83.17700195 C42.01358064 79.86934245 38.88539629 76.4210817 35.81884766 72.84106445 C33.43585883 69.90804795 33.43585883 69.90804795 29.94335938 68.8581543 C28.4508667 68.81102295 28.4508667 68.81102295 26.92822266 68.76293945 C25.85185547 68.72426758 24.77548828 68.6855957 23.66650391 68.64575195 C22.53857422 68.61481445 21.41064453 68.58387695 20.24853516 68.55200195 C19.11287109 68.51333008 17.97720703 68.4746582 16.80712891 68.43481445 C13.9960956 68.34032594 11.18507283 68.25476654 8.37353516 68.17700195 C8.39448242 68.999021 8.41542969 69.82104004 8.43701172 70.66796875 C8.52026825 74.40002159 8.57222762 78.13187889 8.62353516 81.86450195 C8.65705078 83.15807617 8.69056641 84.45165039 8.72509766 85.78442383 C8.73798828 87.0315918 8.75087891 88.27875977 8.76416016 89.5637207 C8.78510742 90.7105835 8.80605469 91.85744629 8.82763672 93.0390625 C8.27738415 96.8414261 7.03082324 98.45825404 4.37353516 101.17700195 C1.27304587 102.72724659 -1.20540702 102.46692211 -4.62646484 102.17700195 C-7.37975505 100.3813779 -9.15273945 99.12445273 -10.62646484 96.17700195 C-10.74062904 93.36607703 -10.79431926 90.57936524 -10.8034668 87.76757812 C-10.81003799 86.89749619 -10.81660919 86.02741425 -10.82337952 85.13096619 C-10.84313304 82.24396687 -10.85477947 79.35701962 -10.86474609 76.4699707 C-10.86882162 75.48511499 -10.87289715 74.50025928 -10.87709618 73.48555946 C-10.89796535 68.2732527 -10.91226359 63.06097234 -10.92163086 57.84863281 C-10.93269908 52.46145671 -10.96710141 47.07469323 -11.00680256 41.68766308 C-11.03293185 37.54839808 -11.0413194 33.40923196 -11.04491234 29.26989174 C-11.04978758 27.28395106 -11.06142815 25.29801506 -11.07995033 23.31215477 C-11.10426406 20.53263917 -11.10339104 17.75419847 -11.09643555 14.97460938 C-11.10924561 14.15416138 -11.12205566 13.33371338 -11.13525391 12.48840332 C-11.09903127 8.51728313 -10.91162079 6.62432014 -8.72209167 3.18965149 C-5.70591954 0.29290606 -4.07116224 0.04728285 0 0 Z " fill="#030303" transform="translate(257.62646484375,119.822998046875)"/>
<path d="M0 0 C5.59135927 0.45830814 8.58947279 2.90996395 12.234375 7.08984375 C13.00265625 8.13269531 13.7709375 9.17554688 14.5625 10.25 C15.43203941 11.41555282 16.30183841 12.58091201 17.171875 13.74609375 C17.82833008 14.63530518 17.82833008 14.63530518 18.49804688 15.54248047 C20.56623398 18.32746496 22.69063079 21.06834381 24.8125 23.8125 C25.64613254 24.89560311 26.47946526 25.97893705 27.3125 27.0625 C27.725 27.59875 28.1375 28.135 28.5625 28.6875 C29.8125 30.3125 31.0625 31.9375 32.3125 33.5625 C32.93137085 34.36699585 32.93137085 34.36699585 33.56274414 35.18774414 C34.39535808 36.27019106 35.22787775 37.3527105 36.06030273 38.43530273 C38.15387244 41.15780322 40.24910817 43.87899085 42.34765625 46.59765625 C42.77111328 47.14679688 43.19457031 47.6959375 43.63085938 48.26171875 C44.78593945 49.75951489 45.9417667 51.25673472 47.09765625 52.75390625 C49.5840616 55.99552214 52.03246924 59.26554406 54.48217773 62.53491211 C54.89918694 63.09120049 55.31619614 63.64748886 55.74584198 64.22063446 C56.7681954 65.58448915 57.79036606 66.94848082 58.8125 68.3125 C58.81170441 67.51958557 58.81090881 66.72667114 58.81008911 65.909729 C58.80788072 58.4347868 58.83428263 50.96075127 58.8927784 43.48605728 C58.92184395 39.64320951 58.93986691 35.80097228 58.93261719 31.95800781 C58.92602659 28.24873887 58.9484903 24.54067662 58.99105453 20.83165741 C59.00219109 19.41713507 59.0028807 18.00249042 58.99292374 16.58795929 C58.92515066 5.54374373 58.92515066 5.54374373 61.07855225 2.55578613 C64.78565461 -0.06689231 68.43969733 -0.39027186 72.8125 0.3125 C78.36544952 3.79580828 78.36544952 3.79580828 79.36655235 7.19221306 C79.58743385 9.49627867 79.61198985 11.73220103 79.57299805 14.04663086 C79.58190567 14.91554459 79.59081329 15.78445831 79.59999084 16.67970276 C79.62126649 19.54635158 79.59896964 22.41075031 79.57421875 25.27734375 C79.57572142 27.27364837 79.57915206 29.26995239 79.58442688 31.26625061 C79.58875825 35.44855114 79.57192232 39.63008062 79.53979492 43.81225586 C79.50003963 49.16701933 79.50930374 54.52033487 79.53402996 59.875144 C79.54822975 63.99739904 79.53811258 68.1193173 79.52051735 72.24154854 C79.51467613 74.21546181 79.51595721 76.18940967 79.52454185 78.16331291 C79.53255474 80.9259757 79.50823692 83.68653547 79.4753418 86.44897461 C79.48816696 87.66718399 79.48816696 87.66718399 79.50125122 88.91000366 C79.38249545 94.70326164 77.97961614 97.26642237 73.8125 101.3125 C70.66825698 102.88462151 67.23458708 102.8304375 63.8125 102.3125 C58.61597523 100.0683522 55.93164901 95.93075908 52.6875 91.5 C51.52816623 89.94990535 50.36799821 88.40043433 49.20703125 86.8515625 C48.63291504 86.08102539 48.05879883 85.31048828 47.46728516 84.51660156 C45.15082257 81.43117456 42.77009541 78.39953843 40.375 75.375 C36.146535 70.01556675 31.94141015 64.63846824 27.75 59.25 C27.20867432 58.55463135 26.66734863 57.8592627 26.10961914 57.14282227 C20.98537226 50.55211435 15.89896248 43.93237662 10.8125 37.3125 C10.80885437 38.04055344 10.80520874 38.76860687 10.80145264 39.51872253 C10.76353963 46.38985131 10.70664943 53.26059108 10.62859726 60.13137341 C10.58913716 63.66352853 10.55694196 67.19543492 10.54150391 70.7277832 C10.52342159 74.79158348 10.47346481 78.85445471 10.421875 82.91796875 C10.42003204 84.81508858 10.42003204 84.81508858 10.41815186 86.75053406 C10.38857391 88.52180412 10.38857391 88.52180412 10.35839844 90.32885742 C10.34951599 91.36588303 10.34063354 92.40290863 10.33148193 93.47135925 C9.6813288 97.0305902 8.28766053 98.72175322 5.8125 101.3125 C2.71201072 102.86274464 0.23355782 102.60242015 -3.1875 102.3125 C-5.94079021 100.51687595 -7.71377461 99.25995078 -9.1875 96.3125 C-9.30687872 93.50170273 -9.36587857 90.7149341 -9.38037109 87.90307617 C-9.38854858 87.03299423 -9.39672607 86.16291229 -9.40515137 85.26646423 C-9.43001787 82.37947279 -9.44652417 79.49253054 -9.4609375 76.60546875 C-9.46626118 75.62061304 -9.47158485 74.63575733 -9.47706985 73.62105751 C-9.5038063 68.40875654 -9.52318003 63.19647957 -9.53759766 57.98413086 C-9.55425105 52.59686019 -9.59903332 47.21020061 -9.6499691 41.82316113 C-9.68360277 37.68389675 -9.69517081 33.54477815 -9.70082474 29.40538979 C-9.70754744 27.41942993 -9.72279586 25.43348 -9.74671555 23.44765282 C-9.77828824 20.66796236 -9.7784159 17.88992966 -9.77099609 15.11010742 C-9.78740143 14.28965942 -9.80380676 13.46921143 -9.82070923 12.62390137 C-9.77334072 8.2890229 -9.58774231 6.79579801 -6.71353149 3.32514954 C-5.8799411 2.66097519 -5.04635071 1.99680084 -4.1875 1.3125 C-3.1875 0.3125 -3.1875 0.3125 0 0 Z " fill="#030303" transform="translate(478.1875,119.6875)"/>
<path d="M0 0 C0.68637039 -0.0065712 1.37274078 -0.0131424 2.07991028 -0.01991272 C4.35486964 -0.03964903 6.62976302 -0.05130825 8.90478516 -0.0612793 C10.06951292 -0.06739259 10.06951292 -0.06739259 11.25777054 -0.07362938 C15.36666855 -0.09449038 19.47553314 -0.1087926 23.58447266 -0.11816406 C27.83061615 -0.12923575 32.07623662 -0.16364372 36.32219505 -0.20333576 C39.58557111 -0.22946517 42.84882177 -0.23785253 46.11229324 -0.24144554 C47.67761395 -0.24632016 49.24292874 -0.25795908 50.80814743 -0.27648354 C52.99882378 -0.30080105 55.18813661 -0.29992459 57.37890625 -0.29296875 C59.24849503 -0.30176811 59.24849503 -0.30176811 61.15585327 -0.31074524 C64.31884766 0.17700195 64.31884766 0.17700195 66.72525024 1.98762512 C69.03444198 5.16012707 68.79725339 7.34975606 68.31884766 11.17700195 C67.00858418 13.66650256 66.24948695 14.86158301 63.56488037 15.77146912 C60.88072152 16.2561079 58.3610313 16.29656431 55.63232422 16.29052734 C54.49144348 16.29045181 53.35056274 16.29037628 52.17510986 16.29029846 C50.94894958 16.28513718 49.72278931 16.27997589 48.45947266 16.2746582 C47.19995789 16.27324326 45.94044312 16.27182831 44.64276123 16.27037048 C41.30219647 16.26572268 37.96170044 16.25674477 34.62115479 16.2456665 C31.20919396 16.23541794 27.79722582 16.23081062 24.38525391 16.22583008 C17.69641319 16.21565229 11.00769262 16.19607661 4.31884766 16.17700195 C4.31884766 25.41700195 4.31884766 34.65700195 4.31884766 44.17700195 C8.38712891 44.1305957 12.45541016 44.08418945 16.64697266 44.03637695 C19.89365649 44.01064772 23.14031147 43.98895855 26.38703918 43.97000122 C29.81292218 43.94888989 33.23840849 43.92068618 36.6640625 43.87524414 C40.59581696 43.82341577 44.52741023 43.80404618 48.45947266 43.78637695 C49.68563293 43.76573181 50.91179321 43.74508667 52.17510986 43.72381592 C53.3159906 43.72351379 54.45687134 43.72321167 55.63232422 43.72290039 C57.13789886 43.70957672 57.13789886 43.70957672 58.67388916 43.69598389 C62.07099417 44.313789 63.24262899 45.46333115 65.31884766 48.17700195 C65.81884766 51.67700195 65.81884766 51.67700195 65.31884766 55.17700195 C63.24262899 57.89067276 62.07099417 59.04021491 58.67388916 59.65802002 C57.67017273 59.64913757 56.6664563 59.64025513 55.63232422 59.63110352 C54.49144348 59.63080139 53.35056274 59.63049927 52.17510986 59.63018799 C50.94894958 59.60954285 49.72278931 59.58889771 48.45947266 59.56762695 C47.19995789 59.56196716 45.94044312 59.55630737 44.64276123 59.55047607 C41.30175741 59.53188243 37.96185298 59.49597523 34.62115479 59.45166016 C31.20928601 59.410667 27.79730007 59.39223706 24.38525391 59.37231445 C17.69583381 59.33159978 11.00833566 59.2533079 4.31884766 59.17700195 C4.31884766 68.08700195 4.31884766 76.99700195 4.31884766 86.17700195 C8.50830078 86.11899414 12.69775391 86.06098633 17.01416016 86.0012207 C20.36447404 85.96904309 23.71474398 85.94193742 27.06512451 85.91825104 C30.5966313 85.89189745 34.12753355 85.85671089 37.65869141 85.79980469 C41.71473892 85.73485217 45.77015089 85.71077838 49.82666016 85.6887207 C51.08624542 85.66291428 52.34583069 85.63710785 53.64358521 85.61051941 C63.41362799 85.60739458 63.41362799 85.60739458 67.11914062 88.52001953 C69.31884766 91.17700195 69.31884766 91.17700195 70.00634766 94.17700195 C69.08205301 98.21028767 67.51358025 99.5855 64.31884766 102.17700195 C61.01782227 102.81192017 61.01782227 102.81192017 57.22119141 102.82397461 C56.52623566 102.83273621 55.83127991 102.8414978 55.11526489 102.8505249 C52.82831554 102.8724514 50.54331509 102.85799295 48.25634766 102.84106445 C46.66121043 102.8444346 45.06607572 102.84928887 43.47094727 102.8555603 C40.13191214 102.86292238 36.79354693 102.85224846 33.45458984 102.82885742 C29.18029965 102.80036894 24.90757918 102.81677663 20.63334656 102.84671974 C17.34065989 102.86481134 14.04834374 102.8590264 10.75564575 102.84608078 C9.18002129 102.84275186 7.60436289 102.84681582 6.02877808 102.85847855 C3.82378411 102.87121941 1.62131066 102.85177153 -0.58349609 102.82397461 C-2.46282837 102.81800766 -2.46282837 102.81800766 -4.38012695 102.81192017 C-8.55545601 102.00883865 -10.02389022 100.41824786 -12.68115234 97.17700195 C-14.29606565 93.94717535 -13.85551754 90.40929164 -13.87402344 86.859375 C-13.88220093 85.99904663 -13.89037842 85.13871826 -13.89880371 84.25231934 C-13.92366944 81.39779359 -13.94017634 78.54331759 -13.95458984 75.6887207 C-13.95991352 74.71489756 -13.9652372 73.74107441 -13.9707222 72.73774147 C-13.99745835 67.58379528 -14.01683214 62.42987337 -14.03125 57.27587891 C-14.04790304 51.94913919 -14.09268506 46.62301755 -14.14362144 41.29651165 C-14.17725653 37.20357034 -14.18882331 33.11077644 -14.19447708 29.01770973 C-14.20119943 27.05407803 -14.21644695 25.09045635 -14.24036789 23.12695885 C-14.27194364 20.37839573 -14.27206784 17.63150894 -14.26464844 14.8828125 C-14.28925644 13.66616661 -14.28925644 13.66616661 -14.31436157 12.42494202 C-14.26718584 8.15542362 -14.05678084 6.64144048 -11.26968384 3.19538879 C-7.23878251 0.05232555 -5.09609959 0.04030126 0 0 Z " fill="#020202" transform="translate(373.68115234375,119.822998046875)"/>
<path d="M0 0 C0.66540298 -0.00671722 1.33080597 -0.01343445 2.01637268 -0.02035522 C4.21623197 -0.03935379 6.41578643 -0.04326038 8.61572266 -0.04541016 C10.14645513 -0.05183717 11.67718637 -0.05856545 13.20791626 -0.06558228 C16.4174484 -0.07755992 19.62687287 -0.08126264 22.83642578 -0.08007812 C26.94460798 -0.07987499 31.05209799 -0.1071689 35.1601162 -0.14162254 C38.32232825 -0.16388633 41.48437364 -0.16791583 44.64665604 -0.16685867 C46.16089894 -0.16921574 47.67514635 -0.17804534 49.18931198 -0.19352341 C51.31029109 -0.21317294 53.42977688 -0.20735123 55.55078125 -0.1953125 C56.75640717 -0.19816254 57.96203308 -0.20101257 59.20419312 -0.20394897 C63.05430803 0.39087555 64.72063277 1.50240706 67.40478516 4.29052734 C67.96728516 7.79052734 67.96728516 7.79052734 67.40478516 11.29052734 C65.18615486 14.19769807 63.88533587 15.13034377 60.40478516 16.29052734 C58.61008129 16.37866167 56.81224277 16.40816455 55.01538086 16.40405273 C53.91446609 16.4039772 52.81355133 16.40390167 51.67927551 16.40382385 C50.49170151 16.39866257 49.3041275 16.39350128 48.08056641 16.38818359 C46.86402878 16.38676865 45.64749115 16.3853537 44.39408875 16.38389587 C40.50179605 16.37829047 36.60956051 16.36573701 32.71728516 16.35302734 C30.08121828 16.34801304 27.4451505 16.34345001 24.80908203 16.33935547 C18.34094324 16.32916942 11.87292831 16.30959491 5.40478516 16.29052734 C5.40478516 26.52052734 5.40478516 36.75052734 5.40478516 47.29052734 C9.08892578 47.25572266 12.77306641 47.22091797 16.56884766 47.18505859 C20.14322129 47.16165177 23.71758633 47.14344153 27.29199219 47.12573242 C29.77315096 47.11066072 32.25428315 47.09019988 34.73535156 47.06420898 C38.30491705 47.02775567 41.87412977 47.01078442 45.44384766 46.99755859 C46.55031647 46.98207474 47.65678528 46.96659088 48.79678345 46.95063782 C54.37880121 46.94942235 58.64797637 46.98905522 63.40478516 50.29052734 C64.8490937 53.17914444 64.78167021 55.08700436 64.40478516 58.29052734 C62.65014648 60.95922852 62.65014648 60.95922852 59.40478516 63.29052734 C55.30199436 63.99187131 51.25556559 63.87153756 47.10400391 63.77880859 C45.91249222 63.77173386 44.72098053 63.76465912 43.49336243 63.75737 C39.69236143 63.7294092 35.89284001 63.66666208 32.09228516 63.60302734 C29.5135304 63.5779469 26.93475254 63.5551333 24.35595703 63.53466797 C18.03839597 63.47957665 11.72169627 63.39593109 5.40478516 63.29052734 C5.42573242 64.26401123 5.44667969 65.23749512 5.46826172 66.24047852 C5.54086702 69.8651651 5.5866585 73.48978789 5.62451172 77.11499023 C5.64458074 78.68150658 5.67184266 80.24794843 5.70654297 81.81420898 C5.7552727 84.07082528 5.77779986 86.32644818 5.79541016 88.58349609 C5.8160553 89.27952438 5.83670044 89.97555267 5.85797119 90.69267273 C5.85961548 94.2863467 5.48493873 96.16734016 3.50537109 99.2097168 C0.79343689 101.89612024 -0.06231291 102.24025358 -3.90771484 102.60302734 C-8.17057595 102.24176793 -9.61513539 101.2706068 -12.59521484 98.29052734 C-14.2103475 95.06026204 -13.76053568 91.5228431 -13.7722168 87.97290039 C-13.77878799 87.11257202 -13.78535919 86.25224365 -13.79212952 85.36584473 C-13.81188243 82.51131102 -13.82352935 79.65682996 -13.83349609 76.80224609 C-13.83757162 75.82842295 -13.84164715 74.8545998 -13.84584618 73.85126686 C-13.86671512 68.69731482 -13.88101344 63.54338947 -13.89038086 58.3894043 C-13.90144884 53.06276023 -13.93585094 47.7365335 -13.97555256 42.41003704 C-14.00168295 38.3170951 -14.0100695 34.22425314 -14.01366234 30.13123512 C-14.01853732 28.16762281 -14.03017717 26.20401523 -14.04870033 24.24048424 C-14.07301638 21.49209793 -14.07214064 18.74479856 -14.06518555 15.99633789 C-14.07799561 15.18524063 -14.09080566 14.37414337 -14.10400391 13.53846741 C-14.06954296 9.80224151 -13.76606993 7.56130892 -11.75334167 4.37141418 C-7.75242774 0.51369413 -5.4456422 0.03448022 0 0 Z " fill="#F09960" transform="translate(745.59521484375,119.70947265625)"/>
<path d="M0 0 C1.21799789 -0.00810448 1.21799789 -0.00810448 2.46060181 -0.01637268 C5.13686908 -0.02885011 7.81205848 -0.01237597 10.48828125 0.00561523 C12.35245826 0.00546022 14.21663559 0.00397089 16.08081055 0.00120544 C19.98468297 -0.00017811 23.88818781 0.01237214 27.79199219 0.03515625 C32.79233836 0.06354072 37.79207385 0.06080296 42.79246521 0.04806614 C46.64096275 0.04110627 50.48931951 0.04890177 54.33779907 0.06132317 C56.18136047 0.06583467 58.024937 0.0661771 59.86849976 0.06225777 C62.44650169 0.05934253 65.02366644 0.07586712 67.6015625 0.09765625 C68.36119293 0.0931546 69.12082336 0.08865295 69.9034729 0.08401489 C75.60389354 0.16393796 78.80856667 1.50949441 82.80078125 5.50170898 C82.65713025 9.38028595 82.36670671 11.76015148 79.98828125 14.87670898 C75.87631563 17.93131202 71.86301028 17.62061673 66.84765625 17.59936523 C66.18743469 17.59795029 65.52721313 17.59653534 64.84698486 17.59507751 C62.74820331 17.58950143 60.6495303 17.57695345 58.55078125 17.56420898 C57.12369946 17.55919089 55.696616 17.55462852 54.26953125 17.55053711 C50.77991293 17.53953987 47.29035769 17.52229179 43.80078125 17.50170898 C43.81743584 18.96963142 43.81743584 18.96963142 43.83442688 20.46720886 C43.93581302 29.69257032 44.01075137 38.91781866 44.05984211 48.14361095 C44.08592891 52.88666705 44.12131 57.62927319 44.17797852 62.37207031 C44.23233134 66.94973989 44.26220869 71.52697686 44.27516747 76.10494423 C44.28440152 77.85089236 44.30243386 79.59681699 44.32943153 81.3425808 C44.36576688 83.78961598 44.37072496 86.23486708 44.3684082 88.68212891 C44.38638458 89.40286087 44.40436096 90.12359283 44.42288208 90.86616516 C44.38232513 94.82898033 43.92512403 96.35457666 41.32780457 99.42793274 C40.49388687 100.1122789 39.65996918 100.79662506 38.80078125 101.50170898 C38.47078125 101.83170898 38.14078125 102.16170898 37.80078125 102.50170898 C33.63677163 102.90209452 31.47827429 102.94355227 27.92578125 100.62670898 C24.76605327 97.46698101 24.68541207 95.63412875 24.67636108 91.23942566 C24.681754 90.14214897 24.681754 90.14214897 24.68725586 89.02270508 C24.68710983 88.25188095 24.68696381 87.48105682 24.68681335 86.68687439 C24.68751136 84.1329367 24.6952985 81.57907147 24.703125 79.02514648 C24.70498958 77.25680583 24.70641329 75.48846465 24.70741272 73.72012329 C24.71123475 69.06106139 24.72106237 64.40203056 24.7321167 59.74298096 C24.74233756 54.99068624 24.74691179 50.23838652 24.75195312 45.48608398 C24.76268491 36.15794532 24.77975758 26.82982973 24.80078125 17.50170898 C23.38599487 17.52527466 23.38599487 17.52527466 21.94262695 17.54931641 C18.42954977 17.60056906 14.91687227 17.63811889 11.40356445 17.66650391 C9.88559687 17.68155251 8.36767249 17.70199636 6.84985352 17.72802734 C4.66281448 17.76458552 2.47635229 17.78147421 0.2890625 17.79467773 C-1.68259888 17.81824341 -1.68259888 17.81824341 -3.6940918 17.84228516 C-7.40415051 17.48179676 -9.26605441 16.75175614 -12.19921875 14.50170898 C-13.76622317 11.36770014 -14.05086436 7.87015803 -13.19921875 4.50170898 C-9.14694465 0.29343457 -5.5809996 -0.0710305 0 0 Z " fill="#050505" transform="translate(588.19921875,119.498291015625)"/>
<path d="M0 0 C6.6975826 1.17501449 10.25596254 6.21694749 14.00244141 11.50244141 C14.51726074 12.24413574 15.03208008 12.98583008 15.5625 13.75 C16.69467357 15.34420395 17.82751041 16.93793702 18.9609375 18.53125 C19.54584961 19.35882813 20.13076172 20.18640625 20.73339844 21.0390625 C23.86070143 25.46036433 27.01254759 29.86280816 30.1875 34.25 C30.77917969 35.08547363 31.37085938 35.92094727 31.98046875 36.78173828 C32.81384766 37.93005127 32.81384766 37.93005127 33.6640625 39.1015625 C34.15213379 39.78299316 34.64020508 40.46442383 35.14306641 41.16650391 C35.61147949 41.64780762 36.07989258 42.12911133 36.5625 42.625 C37.5525 42.625 38.5425 42.625 39.5625 42.625 C41.47001985 40.39802433 43.1743145 38.19128932 44.875 35.8125 C45.39191406 35.10633545 45.90882813 34.4001709 46.44140625 33.67260742 C47.56073721 32.1423554 48.67596541 30.60909596 49.78759766 29.07324219 C52.24407763 25.68485413 54.72766364 22.31672302 57.21166992 18.94848633 C58.42370713 17.30413826 59.63358988 15.65819945 60.84106445 14.01049805 C68.84358277 3.10427815 68.84358277 3.10427815 72.5625 0.625 C76.4598724 0.11664708 78.06806726 0.29537817 81.375 2.5 C83.8812321 4.93462547 84.45458197 5.87067498 84.9453125 9.30078125 C84.41440092 13.91104404 82.30393381 16.27604286 79.4375 19.8125 C78.33206775 21.22817935 77.2279563 22.64489079 76.125 24.0625 C75.54234375 24.80371094 74.9596875 25.54492188 74.359375 26.30859375 C71.30279935 30.24891844 68.3769535 34.28449576 65.4375 38.3125 C64.35328021 39.79682913 63.26733948 41.27990273 62.1796875 42.76171875 C61.62643799 43.53306152 61.07318848 44.3044043 60.50317383 45.09912109 C58.5625 47.625 58.5625 47.625 55.94018555 50.46728516 C47.84094688 59.44253443 47.22516146 66.83160841 47.625 78.625 C47.66630343 80.98291842 47.69316098 83.33999465 47.70518494 85.69824219 C47.71651979 87.15100392 47.74646791 88.60378499 47.7983551 90.05566406 C47.88194568 94.46455262 47.2916144 97.13605503 44.5625 100.625 C40.81202518 103.12531654 39.00393734 103.16103554 34.5625 102.625 C31.93233839 100.4522578 30.08913106 98.67826212 28.5625 95.625 C28.59971669 93.24518933 28.69072257 90.88759183 28.80859375 88.51171875 C29.40550161 70.14942594 28.74468827 57.88036995 15.64453125 43.80859375 C14.58032959 42.72747314 14.58032959 42.72747314 13.49462891 41.62451172 C10.9537511 38.99502104 8.88368383 36.21843399 6.75 33.25 C4.39785751 30.07278427 2.01881425 26.92574586 -0.421875 23.81640625 C-1.44819254 22.48198297 -2.47423718 21.14734975 -3.5 19.8125 C-3.99024658 19.20164551 -4.48049316 18.59079102 -4.9855957 17.96142578 C-8.14843615 13.79683967 -9.16774783 11.02361786 -8.4375 5.625 C-5.86890902 1.96670376 -4.41498801 0.80272509 0 0 Z " fill="#F0975E" transform="translate(837.4375,119.375)"/>
<path d="M0 0 C5.59020892 4.17457376 9.7367213 9.789071 11.75 16.5 C12.57566697 24.75666974 11.16536041 30.90987478 7.3125 38.1875 C2.56961267 43.95587649 -3.45623566 48.55202323 -11.05078125 49.30078125 C-20.40806498 49.33440023 -27.4012377 48.40852647 -34.390625 41.8359375 C-40.5887251 34.76528933 -41.7786762 27.75238309 -41.40625 18.48828125 C-40.45001967 10.27757272 -36.62738288 5.91231681 -30.359375 0.69921875 C-20.78340343 -6.19738329 -10.22318046 -5.25851945 0 0 Z " fill="#EE975E" transform="translate(186,236)"/>
<path d="M0 0 C7.30112046 4.01939922 11.41152313 8.79665622 14.6875 16.4375 C15.75061514 24.60720463 15.41900469 32.50684525 10.6875 39.4375 C6.00817765 45.4371729 1.2743427 49.19493049 -6.3125 50.4375 C-14.74015498 51.44106379 -21.33666522 50.43403218 -28.3125 45.4375 C-33.75783639 40.52642303 -37.78917117 35.10820979 -38.625 27.6484375 C-38.96357557 19.28985314 -36.93880853 13.78101027 -32.6875 6.75 C-23.38659883 -2.30614061 -11.98410078 -5.61848116 0 0 Z " fill="#ED965D" transform="translate(84.3125,234.5625)"/>
<path d="M0 0 C5.54589189 3.41694664 5.54589189 3.41694664 6.55022049 6.91810799 C6.76819195 9.28112241 6.78801827 11.57668198 6.74462891 13.94946289 C6.75193024 14.84109634 6.75923157 15.7327298 6.76675415 16.65138245 C6.78293963 19.59258712 6.7557756 22.53157881 6.7265625 25.47265625 C6.72552503 27.51859028 6.72656146 29.56452632 6.72958374 31.61045837 C6.72940442 35.89531268 6.70857147 40.17941339 6.67236328 44.46411133 C6.62695898 49.95793001 6.62590659 55.4506492 6.63939857 60.94460392 C6.64607908 65.16798181 6.63281706 69.39110871 6.61314011 73.61443901 C6.60543948 75.64023971 6.60313829 77.66606833 6.6063118 79.69188118 C6.60705306 82.52177332 6.5818203 85.3502518 6.54931641 88.17993164 C6.55674866 89.43697906 6.55674866 89.43697906 6.56433105 90.71942139 C6.49711883 94.38310855 6.35589355 96.53610401 4.09066772 99.48875427 C0.27390487 102.24771328 -2.27664691 102.40028416 -7 102 C-9.75329021 100.20437595 -11.52627461 98.94745078 -13 96 C-13.1141642 93.18907508 -13.16785442 90.40236329 -13.17700195 87.59057617 C-13.18357315 86.72049423 -13.19014435 85.85041229 -13.19691467 84.95396423 C-13.21666819 82.06696492 -13.22831463 79.18001766 -13.23828125 76.29296875 C-13.24235678 75.30811304 -13.2464323 74.32325733 -13.25063133 73.30855751 C-13.2715005 68.09625075 -13.28579874 62.88397038 -13.29516602 57.67163086 C-13.30623423 52.28445476 -13.34063656 46.89769128 -13.38033772 41.51066113 C-13.40646701 37.37139613 -13.41485456 33.23223001 -13.41844749 29.09288979 C-13.42332274 27.1069491 -13.4349633 25.12101311 -13.45348549 23.13515282 C-13.47779921 20.35563722 -13.47692619 17.57719651 -13.4699707 14.79760742 C-13.48278076 13.97715942 -13.49559082 13.15671143 -13.50878906 12.31140137 C-13.47256642 8.34028117 -13.28515595 6.44731818 -11.09562683 3.01264954 C-7.50205545 -0.43863275 -4.9332764 -0.49332764 0 0 Z " fill="#F0985F" transform="translate(700,120)"/>
<path d="M0 0 C5.053125 -0.0825 10.10625 -0.165 15.3125 -0.25 C17.66822144 -0.30462402 17.66822144 -0.30462402 20.0715332 -0.36035156 C29.05982632 -0.43095068 38.23836439 -0.31573166 45.25512695 6.04394531 C49.53237306 10.66129364 51.45518792 14.32527697 51.3359375 20.8125 C50.58046201 25.73187529 47.87077362 29.47622472 44.0625 32.578125 C37.94000556 36.61340542 32.55444068 37.15173512 25.29296875 37.09765625 C24.3274408 37.09614563 24.3274408 37.09614563 23.34240723 37.09460449 C20.95741981 37.08940599 18.57245795 37.07544492 16.1875 37.0625 C10.845625 37.041875 5.50375 37.02125 0 37 C0 24.79 0 12.58 0 0 Z " fill="#FBFBFB" transform="translate(266,136)"/>
<path d="M0 0 C2.32820415 0.08440399 2.32820415 0.08440399 4.1289854 1.39690399 C4.87728619 2.23221649 4.87728619 2.23221649 5.64070415 3.08440399 C6.15246197 3.64127899 6.66421978 4.19815399 7.1914854 4.77190399 C7.56660259 5.20502899 7.94171978 5.63815399 8.32820415 6.08440399 C7.32820415 9.08440399 7.32820415 9.08440399 5.36598492 10.24878693 C1.13154241 11.41357553 -2.90176883 11.42061225 -7.27628803 11.45427704 C-8.23791859 11.46902573 -9.19954914 11.48377441 -10.19032001 11.49897003 C-13.36642654 11.54342053 -16.54234999 11.57170035 -19.71867085 11.59612274 C-20.80610836 11.60552195 -21.89354588 11.61492115 -23.01393604 11.62460518 C-28.76901208 11.67213695 -34.52399743 11.70583632 -40.27921772 11.72966766 C-46.21249566 11.75737998 -52.14393012 11.83657005 -58.07653141 11.92721081 C-62.64917858 11.98710624 -67.22138861 12.00694204 -71.79439259 12.01617622 C-73.98088402 12.02773835 -76.16735185 12.05453199 -78.35345936 12.09710503 C-95.45704518 12.41046336 -95.45704518 12.41046336 -101.06693745 9.0515976 C-103.32914437 6.83611982 -105.09060693 4.82027314 -106.67179585 2.08440399 C-106.67179585 1.75440399 -106.67179585 1.42440399 -106.67179585 1.08440399 C-93.19823602 0.95373703 -79.72467371 0.82332906 -66.25110817 0.69325256 C-59.99493316 0.63284604 -53.73875903 0.57235 -47.48258686 0.51165009 C-41.44609685 0.4530849 -35.40960462 0.39475393 -29.37311077 0.336586 C-27.06901373 0.31434233 -24.7649175 0.29201397 -22.46082211 0.26959991 C-19.23598278 0.23824334 -16.0111407 0.20718667 -12.7862978 0.17620087 C-11.83179737 0.16685013 -10.87729694 0.15749939 -9.89387226 0.1478653 C-8.57095425 0.13524406 -8.57095425 0.13524406 -7.22131062 0.12236786 C-6.45898782 0.11499352 -5.69666502 0.10761917 -4.91124153 0.10002136 C-3.27386137 0.08860266 -1.63660354 0.05170151 0 0 Z " fill="#3147CA" transform="translate(189.67179584503174,207.91559600830078)"/>
<path d="M0 0 C0.90982635 -0.00233643 1.81965271 -0.00467285 2.75704956 -0.00708008 C5.74731947 -0.00868751 8.73602464 0.02526456 11.72607422 0.06005859 C13.81158899 0.06685262 15.89711146 0.07157204 17.9826355 0.0743103 C23.46198351 0.08769911 28.94068024 0.13196385 34.4197998 0.18188477 C38.89303517 0.21730282 43.36620508 0.23036803 47.83955574 0.24230385 C53.17676932 0.25710015 58.51391408 0.28230412 63.85107422 0.31005859 C64.86799473 0.31496937 65.88491524 0.31988014 66.93265152 0.32493973 C69.81194758 0.34124122 72.69108934 0.36464657 75.5703125 0.390625 C76.84530609 0.39701492 76.84530609 0.39701492 78.14605713 0.40353394 C82.11000663 0.4468148 85.78625932 0.60629593 89.65576172 1.58349609 C89.65576172 2.90349609 89.65576172 4.22349609 89.65576172 5.58349609 C91.57435338 8.31568802 91.57435338 8.31568802 93.65576172 10.58349609 C92.43911331 10.58714172 91.2224649 10.59078735 89.96894836 10.59454346 C78.50646846 10.63147523 67.04425766 10.68922819 55.58198261 10.76739883 C49.68900242 10.80691784 43.79617265 10.83908473 37.90307617 10.85449219 C32.21651322 10.86962945 26.53036369 10.90402331 20.8439846 10.95180511 C18.67389709 10.9666491 16.50375056 10.97453883 14.33361244 10.97537994 C11.29512004 10.97774222 8.25777704 11.00476307 5.21948242 11.03759766 C4.32108643 11.03256729 3.42269043 11.02753693 2.49707031 11.02235413 C-2.72494612 11.10973403 -5.53456544 11.64642366 -9.34423828 15.58349609 C-12.70338986 14.1438597 -15.06048766 12.45933021 -17.34423828 9.58349609 C-17.09057478 7.19360179 -16.64582497 5.92299306 -15.04384041 4.11963463 C-10.04470815 0.39678541 -6.13527675 -0.11898055 0 0 Z " fill="#3147C9" transform="translate(34.34423828125,80.41650390625)"/>
<path d="M0 0 C4.49189312 2.26525269 6.78934001 4.41492743 9 9 C9.78004618 14.29485889 9.67612289 18.56974005 7.375 23.4375 C3.25592051 27.88176997 0.13066792 30.22384379 -6 30.5 C-10.68440761 30.30276179 -13.41861249 29.14463293 -17 26 C-20.79473094 21.6818579 -21.30111187 17.78371349 -21.2109375 12.2109375 C-20.78418642 7.73795392 -18.41299141 5.47652855 -15.5625 2.1875 C-11.15324562 -1.32439357 -5.31804074 -0.85890295 0 0 Z " fill="#FEFDFC" transform="translate(177,244)"/>
<path d="M0 0 C4.20601437 3.80544157 6.82035858 6.98488748 7.1875 12.75 C6.93582871 17.88756572 5.00434617 21.55642847 1.625 25.375 C-2.54368414 28.47727657 -6.73809499 29.07209395 -11.8359375 28.92578125 C-16.4992786 27.91419495 -19.37365612 24.93769249 -22.375 21.375 C-24.73489729 17.69356022 -24.55951217 14.6570333 -23.83984375 10.36328125 C-22.71659796 5.55880974 -21.22728903 3.03595884 -17.3125 0 C-11.60744749 -2.8767002 -5.68231924 -2.73593149 0 0 Z " fill="#FEFDFC" transform="translate(81.375,245.625)"/>
<path d="M0 0 C3.65014668 1.48998864 5.44911708 3.56942979 7.96324158 6.55540466 C12.51858193 11.18197839 15.72439591 12.05937528 22.11590576 12.1832428 C23.83465912 12.14873268 23.83465912 12.14873268 25.58813477 12.11352539 C26.8183989 12.1245932 28.04866302 12.13566101 29.31620789 12.14706421 C32.664388 12.16850933 36.00786225 12.1505378 39.35561109 12.11447453 C42.86306698 12.08619305 46.37019617 12.10906233 49.87767029 12.12632751 C56.5075913 12.15128204 63.13654637 12.13074714 69.76637834 12.09355396 C77.31913665 12.05342147 84.87155475 12.06447802 92.42437279 12.07967007 C107.94989868 12.1097605 123.47460927 12.07610205 139 12 C138.67 12.99 138.34 13.98 138 15 C138 14.34 138 13.68 138 13 C97.74 13.33 57.48 13.66 16 14 C22.6 20.6 29.2 27.2 36 34 C36 40 36 40 34.875 41.9375 C33 43 33 43 30.34106445 42.9831543 C25.60359148 41.58908753 23.08094334 38.79864588 19.66796875 35.33203125 C18.99075272 34.65959885 18.31353668 33.98716644 17.61579895 33.2943573 C16.190267 31.87222111 14.77100305 30.44377777 13.35766602 29.00952148 C11.19482398 26.81991461 9.00662448 24.65824445 6.81445312 22.49804688 C5.43068569 21.11097529 4.04847015 19.72235343 2.66796875 18.33203125 C2.0138652 17.68804886 1.35976166 17.04406647 0.68583679 16.38056946 C-2.11268225 13.50868583 -3.80976672 11.58338495 -5.0690918 7.72143555 C-5 5 -5 5 -2.5625 2.125 C-1.716875 1.42375 -0.87125 0.7225 0 0 Z " fill="#4256CD" transform="translate(69,143)"/>
<path d="M0 0 C1.34060549 0.01127892 2.68123122 0.02033664 4.02186584 0.02734375 C7.6541961 0.05260853 11.28545837 0.10889429 14.9173243 0.17078948 C18.71547398 0.23023086 22.51385364 0.26109356 26.31230164 0.29499817 C33.50191042 0.36350976 40.69094413 0.45769213 47.88012618 0.56111747 C56.06610066 0.67763148 64.25230435 0.7654988 72.43865263 0.85096967 C89.2755614 1.0273995 106.11181748 1.23977255 122.94799805 1.47583008 C122.94799805 1.80583008 122.94799805 2.13583008 122.94799805 2.47583008 C71.96299805 2.97083008 71.96299805 2.97083008 19.94799805 3.47583008 C26.7418473 11.2663644 26.7418473 11.2663644 35.03564453 12.53465271 C35.90455322 12.51524124 36.77346191 12.49582977 37.66870117 12.47583008 C39.07496765 12.49221275 39.07496765 12.49221275 40.50964355 12.50892639 C43.58397091 12.53546991 46.6549999 12.50605674 49.72924805 12.47583008 C51.87017285 12.48335328 54.01108793 12.49439133 56.15197754 12.50878906 C61.7681366 12.53716278 67.38315252 12.51797158 72.99926758 12.4887085 C78.73746117 12.46728065 84.47545039 12.49106386 90.21362305 12.51098633 C101.45867231 12.54339318 112.70303277 12.52552736 123.94799805 12.47583008 C123.94799805 12.80583008 123.94799805 13.13583008 123.94799805 13.47583008 C106.63204276 13.56940553 89.31616675 13.63987382 72.00001621 13.68307877 C63.95923455 13.70367568 55.9186103 13.73174107 47.87792969 13.77758789 C40.86702218 13.81754392 33.85622871 13.84328375 26.84521049 13.85218406 C23.13527073 13.85738406 19.42565712 13.86954526 15.71582222 13.89875031 C11.56723893 13.93114231 7.41921726 13.93178389 3.27050781 13.92993164 C1.43954559 13.9515033 1.43954559 13.9515033 -0.42840576 13.97351074 C-7.53165343 13.93924511 -12.84889052 13.02739105 -19.05200195 9.47583008 C-16.82242032 -0.96379216 -8.9631288 -0.19536714 0 0 Z " fill="#5264D2" transform="translate(64.052001953125,206.524169921875)"/>
<path d="M0 0 C3.21043882 1.38188453 5.04936365 2.92421903 7.25 5.625 C8.03117187 6.57246094 8.03117187 6.57246094 8.828125 7.5390625 C9.40820312 8.26222656 9.40820312 8.26222656 10 9 C6.40482352 12.71880703 2.79349931 16.42085766 -0.83374023 20.10839844 C-2.06520273 21.36499944 -3.29213971 22.62605218 -4.5144043 23.89160156 C-6.27261056 25.71048486 -8.0464955 27.51271284 -9.82421875 29.3125 C-10.36713058 29.88121826 -10.91004242 30.44993652 -11.46940613 31.03588867 C-13.85644658 33.4246622 -15.37671457 34.90428724 -18.77270508 35.42578125 C-21 35 -21 35 -22.8125 33.875 C-24 32 -24 32 -24 26 C-17.4 19.4 -10.8 12.8 -4 6 C-50.53 5.67 -97.06 5.34 -145 5 C-145 4.67 -145 4.34 -145 4 C-144.27093539 3.99761165 -143.54187078 3.99522329 -142.79071331 3.99276257 C-125.06435711 3.9336687 -107.33814082 3.85815486 -89.61193371 3.76428509 C-81.03972285 3.71928808 -72.4675539 3.67988252 -63.89526367 3.65356445 C-56.4250785 3.63061589 -48.95502552 3.59725331 -41.48494512 3.55129844 C-37.52828041 3.52732359 -33.57174696 3.50862285 -29.61501122 3.50238609 C-25.89263007 3.49635436 -22.17058496 3.47642459 -18.44832802 3.44572449 C-16.42718026 3.43270447 -14.40595412 3.43451941 -12.38476562 3.4367218 C-11.18583176 3.42418365 -9.98689789 3.41164551 -8.75163269 3.39872742 C-7.70724124 3.39411845 -6.66284979 3.38950949 -5.58681011 3.38476086 C-2.66738946 2.95052767 -1.77641215 2.297498 0 0 Z " fill="#475BCF" transform="translate(175,87)"/>
<path d="M0 0 C2.198622 1.76264791 4.02920655 3.44544231 5.95703125 5.46875 C6.77877083 6.30110168 6.77877083 6.30110168 7.61711121 7.15026855 C9.36100503 8.92211014 11.08669954 10.71054789 12.8125 12.5 C13.99298124 13.70556344 15.17460944 14.91000493 16.35742188 16.11328125 C19.25174216 19.06267591 22.12986235 22.02707505 25 25 C24.09515208 26.15518918 23.1755794 27.29885406 22.25 28.4375 C21.73953125 29.07558594 21.2290625 29.71367188 20.703125 30.37109375 C18.7942387 32.19679464 17.6033699 32.69919045 15 33 C14.67 32.67 14.34 32.34 14 32 C12.12740886 31.89124357 10.25069719 31.85311034 8.37498474 31.84178162 C7.15355774 31.8319928 5.93213074 31.82220398 4.6736908 31.81211853 C3.30777017 31.80621358 1.94184913 31.80040318 0.57592773 31.79467773 C-0.85277595 31.78510453 -2.28147677 31.77509479 -3.71017456 31.76467896 C-7.60046887 31.73756333 -11.49077539 31.71658995 -15.38111234 31.69667697 C-19.44240644 31.67485833 -23.50366261 31.64744954 -27.56492615 31.62062073 C-35.26076182 31.57063792 -42.95661848 31.5257199 -50.65249532 31.48259836 C-59.41174807 31.43327364 -68.17096278 31.3783379 -76.93017876 31.32291877 C-94.95341721 31.20901298 -112.97669153 31.10219276 -131 31 C-131 30.67 -131 30.34 -131 30 C-83.81 29.67 -36.62 29.34 12 29 C2.1 19.1 2.1 19.1 -8 9 C-8 3 -8 3 -6.8125 1.125 C-4.2567721 -0.46131387 -2.98792824 -0.44629881 0 0 Z " fill="#4357CF" transform="translate(159,50)"/>
<path d="M0 0 C9.57 0 19.14 0 29 0 C20.52693208 9.8852459 20.52693208 9.8852459 17.36328125 10.57421875 C9.30144109 10.87357005 9.30144109 10.87357005 5.43359375 8.27734375 C3.4023709 6.27519028 1.60810276 4.35539758 0 2 C0 1.34 0 0.68 0 0 Z " fill="#3045C5" transform="translate(243,44)"/>
<path d="M0 0 C4.98657861 2.20128245 8.64914205 5.74607395 12 10 C12.72884872 13.51172564 12.65164176 14.87772808 10.875 17.9375 C7.96201307 19.58819259 6.17408153 18.8705612 3 18 C0.2265625 15.71484375 0.2265625 15.71484375 -2.375 12.9375 C-3.24898438 12.01839844 -4.12296875 11.09929687 -5.0234375 10.15234375 C-5.67570312 9.44207031 -6.32796875 8.73179687 -7 8 C-6.02133662 6.85373678 -5.04205413 5.70800212 -4.0625 4.5625 C-3.51722656 3.92441406 -2.97195312 3.28632813 -2.41015625 2.62890625 C-1.63204305 1.73008851 -0.84063472 0.84063472 0 0 Z " fill="#374CCC" transform="translate(93,167)"/>
<path d="M0 0 C2.35985986 1.97457662 4.68643583 3.9722816 7 6 C7.66773438 6.56460938 8.33546875 7.12921875 9.0234375 7.7109375 C12.17044936 10.54967065 13.80371678 12.28029486 14.9375 16.4375 C13.54465039 21.73032853 10.06583263 24.50592509 6 28 C4.16132568 25.24198852 3.59028295 23.88210065 2.9296875 20.76171875 C2.75566406 19.94123047 2.58164062 19.12074219 2.40234375 18.27539062 C2.22832031 17.42138672 2.05429687 16.56738281 1.875 15.6875 C1.60236328 14.42389648 1.60236328 14.42389648 1.32421875 13.13476562 C0.39842969 8.68332121 -0.22385885 4.57418242 0 0 Z " fill="#3347C1" transform="translate(24,149)"/>
<path d="M0 0 C0.94101563 0.00644531 1.88203125 0.01289063 2.8515625 0.01953125 C5.375 0.1875 5.375 0.1875 8.375 1.1875 C7.375 3.1875 7.375 3.1875 5.625 4 C2.65292388 5.56859573 0.67248431 7.76237767 -1.625 10.1875 C-0.305 10.8475 1.015 11.5075 2.375 12.1875 C-0.72043159 13.10466491 -3.40396382 13.57958299 -6.625 13.1875 C-9.78111232 10.91240425 -12.19592465 8.21226141 -14.625 5.1875 C-9.95430041 1.38174478 -6.03197756 -0.0913936 0 0 Z " fill="#EF9B64" transform="translate(72.625,231.8125)"/>
<path d="M0 0 C7.26 0 14.52 0 22 0 C16 7 16 7 13 10 C9.75479113 9.91611738 8.28751256 9.23281995 5.76171875 7.1875 C5.07722656 6.465625 4.39273438 5.74375 3.6875 5 C2.99011719 4.278125 2.29273437 3.55625 1.57421875 2.8125 C0 1 0 1 0 0 Z " fill="#2D42BC" transform="translate(83,209)"/>
<path d="M0 0 C0.99 0.33 1.98 0.66 3 1 C0.66666667 3.33333333 -1.66666667 5.66666667 -4 8 C-3.88679697 11.28288776 -2.71715137 12.30354487 -0.4375 14.75 C0.366875 15.4925 1.17125 16.235 2 17 C1.67 17.66 1.34 18.32 1 19 C-1.31 16.69 -3.62 14.38 -6 12 C-7.98 12.99 -7.98 12.99 -10 14 C-11.3242287 14.36784131 -12.65613912 14.71202981 -14 15 C-12.68 13.35 -11.36 11.7 -10 10 C-10.66 8.35 -11.32 6.7 -12 5 C-11.13375 5.28875 -10.2675 5.5775 -9.375 5.875 C-6.09622443 6.34572945 -6.09622443 6.34572945 -4.265625 4.73046875 C-2.76569546 3.20554038 -1.35341444 1.65577299 0 0 Z " fill="#26389F" transform="translate(183,76)"/>
<path d="M0 0 C2.31 0.33 4.62 0.66 7 1 C7 2.32 7 3.64 7 5 C8.32 6.65 9.64 8.3 11 10 C6.71 10 2.42 10 -2 10 C-0.68 8.35 0.64 6.7 2 5 C1.34 3.35 0.68 1.7 0 0 Z " fill="#2A3EB0" transform="translate(63,81)"/>
<path d="M0 0 C3.76767766 1.44910679 5.86244919 3.86757012 8.4375 6.85546875 C9.94058926 8.20938207 9.94058926 8.20938207 11.953125 7.8984375 C14.45818487 6.79888832 15.87460874 5.42108691 17.75 3.4375 C18.36359375 2.79683594 18.9771875 2.15617188 19.609375 1.49609375 C20.06828125 1.00238281 20.5271875 0.50867188 21 0 C21.99 0.33 22.98 0.66 24 1 C22.6447561 2.51787317 21.26488729 4.01378389 19.875 5.5 C19.10929687 6.3353125 18.34359375 7.170625 17.5546875 8.03125 C15 10 15 10 12 10.55859375 C8.13820517 9.8395356 6.77325977 8.42030221 4.125 5.5625 C3.34382812 4.73878906 2.56265625 3.91507813 1.7578125 3.06640625 C0 1 0 1 0 0 Z " fill="#293BA8" transform="translate(137,209)"/>
<path d="M0 0 C0.33 1.32 0.66 2.64 1 4 C-3.61534219 8.06478107 -8.25585812 12.08608295 -13 16 C-12.8125 13.1875 -12.8125 13.1875 -12 10 C-9.875 8.5625 -9.875 8.5625 -7 7 C-4.5660414 4.76257222 -2.27749284 2.39563368 0 0 Z " fill="#2E41B3" transform="translate(219,148)"/>
<path d="M0 0 C3.53600465 1.91135386 5.78972846 3.62642766 8 7 C7.67 7.66 7.34 8.32 7 9 C5.68 9 4.36 9 3 9 C2 6 1 3 0 0 Z M-3 9 C-1.35 9 0.3 9 2 9 C0.35 10.98 -1.3 12.96 -3 15 C-4.125 11.25 -4.125 11.25 -3 9 Z " fill="#2D3FAB" transform="translate(225,80)"/>
<path d="M0 0 C0.74609375 1.734375 0.74609375 1.734375 1 4 C-0.65234375 6.140625 -0.65234375 6.140625 -2.9375 8.25 C-3.68902344 8.95640625 -4.44054688 9.6628125 -5.21484375 10.390625 C-5.80394531 10.92171875 -6.39304688 11.4528125 -7 12 C-7.66 11.67 -8.32 11.34 -9 11 C-7.59155282 7.78475695 -5.89655214 5.67816132 -3.375 3.25 C-2.74335937 2.63640625 -2.11171875 2.0228125 -1.4609375 1.390625 C-0.73777344 0.70226562 -0.73777344 0.70226562 0 0 Z " fill="#D08350" transform="translate(56,256)"/>
<path d="M0 0 C0.66 0 1.32 0 2 0 C1.42110619 3.28754511 0.45171589 4.93672495 -1.9375 7.25 C-2.46214844 7.77078125 -2.98679687 8.2915625 -3.52734375 8.828125 C-5 10 -5 10 -7 10 C-6.75 8.125 -6.75 8.125 -6 6 C-3.9375 4.75 -3.9375 4.75 -2 4 C-2 3.34 -2 2.68 -2 2 C-1.34 2 -0.68 2 0 2 C0 1.34 0 0.68 0 0 Z " fill="#2B3EB0" transform="translate(27,123)"/>
<path d="M0 0 C0.99 0.33 1.98 0.66 3 1 C0.03 3.97 -2.94 6.94 -6 10 C-6.99 9.67 -7.98 9.34 -9 9 C-6.03 6.03 -3.06 3.06 0 0 Z " fill="#2B3EB0" transform="translate(114,145)"/>
<path d="M0 0 C0.99 0.33 1.98 0.66 3 1 C0.03 3.97 -2.94 6.94 -6 10 C-6.99 9.67 -7.98 9.34 -9 9 C-6.03 6.03 -3.06 3.06 0 0 Z " fill="#2A3DAE" transform="translate(269,44)"/>
<path d="M0 0 C0.66 0 1.32 0 2 0 C1.49477778 4.37859255 -1.17827222 6.81651224 -4 10 C-4.66 9.67 -5.32 9.34 -6 9 C-4.79618552 6.50638429 -3.54571278 4.31856917 -2 2 C-1.34 2 -0.68 2 0 2 C0 1.34 0 0.68 0 0 Z " fill="#D0824F" transform="translate(155,265)"/>
<path d="M0 0 C0.99 0.33 1.98 0.66 3 1 C0.42215154 3.64752004 -1.91648098 5.94432065 -5 8 C-4.45773019 4.20411134 -2.79872437 2.52788007 0 0 Z M-7 8 C-6.34 8 -5.68 8 -5 8 C-5.33 8.66 -5.66 9.32 -6 10 C-6.33 9.34 -6.66 8.68 -7 8 Z " fill="#2E41B4" transform="translate(183,76)"/>
<path d="M0 0 C0.66 0.66 1.32 1.32 2 2 C0.02 3.98 -1.96 5.96 -4 8 C-4.99 7.67 -5.98 7.34 -7 7 C-4.69 4.69 -2.38 2.38 0 0 Z " fill="#CE824F" transform="translate(184,237)"/>
<path d="M0 0 C0.763125 0.61875 1.52625 1.2375 2.3125 1.875 C4.99625809 4.05597052 4.99625809 4.05597052 8 6 C3.50347222 6.36458333 3.50347222 6.36458333 1.1875 4.6875 C0 3 0 3 0 0 Z " fill="#5768D2" transform="translate(151,116)"/>
<path d="M0 0 C2.0625 0.4375 2.0625 0.4375 4 1 C2.71034824 2.37562854 1.37310707 3.70766393 0 5 C-0.66 5 -1.32 5 -2 5 C-1.125 1.125 -1.125 1.125 0 0 Z " fill="#3245B5" transform="translate(153,51)"/>
</svg>
